<svg width="164" height="32" viewBox="0 0 164 32" fill="none" xmlns="http://www.w3.org/2000/svg">
<path fill-rule="evenodd" clip-rule="evenodd" d="M111.723 24.3282H114.7V18.6366H119.838C120.602 18.6359 121.221 18.0161 121.22 17.2523L121.22 15.8257H114.7V11.0936C114.7 10.8158 114.924 10.5903 115.202 10.59H121.581C122.345 10.589 122.964 9.96912 122.963 9.20525V8.0002H114.025C112.752 8.00168 111.721 9.03491 111.723 10.308V24.3278V24.3282ZM64.7404 24.3282H61.7658V14.2892C61.7658 13.11 62.4055 12.6834 63.5816 12.7301H70.7074L70.7132 15.2834H65.2222C64.9562 15.2834 64.7404 15.4996 64.7404 15.7661V24.3278L64.7404 24.3282ZM74.1406 18.399C74.1406 16.3092 75.387 15.0143 77.4724 15.0143C79.5578 15.0143 80.8042 16.3092 80.8042 18.3995C80.8042 20.4889 79.5578 21.7838 77.4724 21.7838C75.387 21.7838 74.1406 20.4893 74.1406 18.399ZM71.2163 18.399C71.2163 22.1245 73.8684 24.3282 77.4724 24.3282C81.0538 24.3282 83.7058 22.1245 83.7058 18.399C83.7058 14.6736 81.0538 12.7274 77.4724 12.7274C73.8684 12.7274 71.2163 14.6736 71.2163 18.399ZM147.484 18.153C147.484 15.9106 146.117 15.4013 144.875 15.2865C142.373 15.0552 141.227 16.4654 141.227 19.6788V24.3273H138.249V12.727H141.227V14.7692L141.244 14.7341C141.479 14.2563 142.244 12.6976 145.868 12.727C147.26 12.7385 150.44 13.4432 150.44 17.7135V24.3273H147.484V18.1526L147.484 18.153ZM91.7676 15.2861C93.0095 15.4009 94.3765 15.9102 94.3765 18.1526V24.3278H97.332V17.7131C97.332 13.4436 94.1523 12.7386 92.7604 12.7274C89.1364 12.6976 88.3712 14.2563 88.1368 14.7341L88.1195 14.7697V12.727H85.1409V24.3282H88.1195V19.6779C88.1195 16.4649 89.2658 15.0544 91.7676 15.2857V15.2861ZM152.08 24.3278H163.171V21.7126H154.126C153.941 21.7126 153.893 21.4559 154.066 21.3883L162.624 18.0423C162.954 17.9132 163.171 17.5952 163.171 17.2411L163.171 12.7261H152.08V15.2852H161.124C161.309 15.2852 161.357 15.5419 161.185 15.6095L153.625 18.565C152.693 18.9303 152.079 19.83 152.08 20.8318V24.3273V24.3278ZM133.523 18.4991C133.523 20.996 131.906 21.9439 129.782 21.9439C127.634 21.9439 126.11 20.996 126.11 18.4991C126.11 16.0023 127.634 15.0543 129.782 15.0543C131.906 15.0543 133.523 16.0023 133.523 18.4991ZM136.478 24.3278V12.7261H133.601V15.5859H133.291C132.737 13.9214 131.306 12.7261 128.673 12.7261C125.163 12.7261 123.131 15.1464 123.131 18.4987C123.131 21.8509 125.163 24.3273 128.673 24.3273C131.306 24.3273 132.737 23.076 133.291 21.4346H133.601V24.3273H136.478V24.3278ZM103.974 15.2852V21.7967H108.151V24.3309H102.797C101.62 24.3771 100.997 23.9118 100.997 22.7326V15.2848H98.3199V12.695H100.997V10.4508C100.997 9.7724 101.395 9.15764 102.012 8.88051L103.974 8.00019V12.695H107.689V15.2852H103.974ZM52.6454 24.3273H49.6682V10.3084C49.6667 9.03534 50.6976 8.0021 51.9706 8.00063H60.9082V9.20612C60.9087 9.96982 60.2903 10.5895 59.5266 10.5904H53.1481C52.8705 10.5904 52.6455 10.816 52.6455 11.094V15.8261H59.1654V17.2527C59.1663 18.0166 58.5476 18.6365 57.7837 18.637H52.6455V24.3282L52.6454 24.3273Z" fill="white"/>
<path fill-rule="evenodd" clip-rule="evenodd" d="M21.6678 31.4678V7.6888C21.7376 2.21959 23.5681 1.44024 26.0849 1.16089C27.4697 1.00742 31.0533 0.75075 34.41 0.5101C37.1541 0.31348 39.7466 0.12754 40.8623 0.01812C43.3435 -0.22565 42.8983 2.05234 41.892 3.12705C40.2213 5.35655 37.3788 7.55669 34.547 8.26264C33.6969 8.47482 32.6911 8.49974 31.7521 8.52287C30.7472 8.54778 29.8193 8.57091 29.2397 8.81868C28.1187 9.2991 27.5008 13.368 28.1187 13.7652C28.7366 14.1633 32.8766 14.7118 34.918 12.9565C36.5719 11.6398 36.3566 12.9565 35.9202 13.7657C35.8579 13.8818 35.7747 14.0539 35.6728 14.2648C35.0656 15.5205 33.7916 18.157 32.1911 18.6255C31.2846 18.891 30.0648 18.8198 28.9239 18.7536C27.7135 18.6828 26.5925 18.6179 26.0307 18.9653C25.0543 19.5703 23.4862 28.3112 23.117 30.938C23.0624 31.3464 22.8264 31.7085 22.4747 31.9233C22.3103 32.0226 22.1051 32.0257 21.9378 31.9313C21.7705 31.837 21.6669 31.6598 21.6669 31.4678H21.6678ZM21.0272 31.4678V7.6888C20.9569 2.21959 19.1269 1.44069 16.61 1.16089C15.2252 1.00742 11.6417 0.75075 8.28496 0.5101C5.54079 0.31348 2.94831 0.12754 1.83222 0.01812C-0.6495 -0.22565 -0.20378 2.05234 0.80243 3.12661C2.47322 5.35611 5.31525 7.55625 8.1475 8.2622C8.99713 8.47438 10.0033 8.4993 10.9424 8.52243C11.9468 8.54734 12.8752 8.57047 13.4548 8.81824C14.5758 9.29866 15.1936 13.3675 14.5758 13.7648C13.9579 14.1629 9.8174 14.7114 7.77651 12.9561C6.12218 11.6394 6.33792 12.9561 6.77386 13.7652C6.83658 13.8813 6.91977 14.0535 7.02163 14.2643C7.62838 15.5201 8.90238 18.1566 10.5029 18.625C11.4099 18.8906 12.6296 18.8194 13.7702 18.7531C14.981 18.6824 16.102 18.6175 16.6638 18.9649C17.6402 19.5698 19.2082 28.3108 19.5775 30.9375C19.6344 31.3454 19.8666 31.7106 20.2194 31.9228C20.3838 32.0221 20.5889 32.0252 20.7562 31.9309C20.9235 31.8365 21.0271 31.6594 21.0272 31.4673L21.0272 31.4678Z" fill="#EC146C"/>
</svg>
